<?xml version="1.0" encoding="utf-8"?>
<!-- Generator: Adobe Illustrator 26.1.0, SVG Export Plug-In . SVG Version: 6.00 Build 0)  -->
<svg version="1.1"
	 id="svg60" xmlns:cc="http://creativecommons.org/ns#" xmlns:dc="http://purl.org/dc/elements/1.1/" xmlns:rdf="http://www.w3.org/1999/02/22-rdf-syntax-ns#" xmlns:svg="http://www.w3.org/2000/svg"
	 xmlns="http://www.w3.org/2000/svg" xmlns:xlink="http://www.w3.org/1999/xlink" x="0px" y="0px" viewBox="0 0 1463.8 1097.8"
	 style="enable-background:new 0 0 1463.8 1097.8;" xml:space="preserve">
<style type="text/css">
	.st0{fill:#4285F4;}
	.st1{fill:#34A853;}
	.st2{fill:#FBBC04;}
	.st3{fill:#EA4335;}
	.st4{fill:#C5221F;}
</style>
<g id="g18" transform="matrix(18.510943,0,0,18.510943,0,-0.11106566)">
	<path id="path8" class="st0" d="M5.4,59.3H18V28.8L0,15.3v38.6C0,56.9,2.4,59.3,5.4,59.3z"/>
	<path id="path10" class="st1" d="M61.1,59.3h12.6c3,0,5.4-2.4,5.4-5.4V15.3l-18,13.5V59.3z"/>
	<path id="path12" class="st2" d="M61.1,5.4v23.4l18-13.5V8.1C79.1,3.6,75.5,0,71,0c-1.8,0-3.5,0.6-4.9,1.6L61.1,5.4z"/>
	<path id="path14" class="st3" d="M18,28.8V5.4l21.6,16.2L61.1,5.4v23.4L39.5,44.9L18,28.8z"/>
	<path id="path16" class="st4" d="M0,8.1v7.2l18,13.5V5.4l-5-3.8c-3.6-2.7-8.6-2-11.3,1.6C0.6,4.6,0,6.3,0,8.1z"/>
</g>
</svg>
